%TF.GenerationSoftware,KiCad,Pcbnew,(6.0.9-0)*%
%TF.CreationDate,2022-11-14T23:33:26+01:00*%
%TF.ProjectId,RaspberryShield,52617370-6265-4727-9279-536869656c64,rev?*%
%TF.SameCoordinates,Original*%
%TF.FileFunction,Legend,Top*%
%TF.FilePolarity,Positive*%
%FSLAX46Y46*%
G04 Gerber Fmt 4.6, Leading zero omitted, Abs format (unit mm)*
G04 Created by KiCad (PCBNEW (6.0.9-0)) date 2022-11-14 23:33:26*
%MOMM*%
%LPD*%
G01*
G04 APERTURE LIST*
%TA.AperFunction,Profile*%
%ADD10C,0.100000*%
%TD*%
%ADD11C,0.150000*%
%ADD12C,0.120000*%
G04 APERTURE END LIST*
D10*
X150000000Y-69000000D02*
X190000000Y-69000000D01*
X190000000Y-69000000D02*
X190000000Y-129000000D01*
X190000000Y-129000000D02*
X150000000Y-129000000D01*
X150000000Y-129000000D02*
X150000000Y-69000000D01*
D11*
%TO.C,J3*%
X162516666Y-73052380D02*
X162516666Y-73766666D01*
X162469047Y-73909523D01*
X162373809Y-74004761D01*
X162230952Y-74052380D01*
X162135714Y-74052380D01*
X162897619Y-73052380D02*
X163516666Y-73052380D01*
X163183333Y-73433333D01*
X163326190Y-73433333D01*
X163421428Y-73480952D01*
X163469047Y-73528571D01*
X163516666Y-73623809D01*
X163516666Y-73861904D01*
X163469047Y-73957142D01*
X163421428Y-74004761D01*
X163326190Y-74052380D01*
X163040476Y-74052380D01*
X162945238Y-74004761D01*
X162897619Y-73957142D01*
%TO.C,J4*%
X181166666Y-71952380D02*
X181166666Y-72666666D01*
X181119047Y-72809523D01*
X181023809Y-72904761D01*
X180880952Y-72952380D01*
X180785714Y-72952380D01*
X182071428Y-72285714D02*
X182071428Y-72952380D01*
X181833333Y-71904761D02*
X181595238Y-72619047D01*
X182214285Y-72619047D01*
%TO.C,J1*%
X187216666Y-120102380D02*
X187216666Y-120816666D01*
X187169047Y-120959523D01*
X187073809Y-121054761D01*
X186930952Y-121102380D01*
X186835714Y-121102380D01*
X188216666Y-121102380D02*
X187645238Y-121102380D01*
X187930952Y-121102380D02*
X187930952Y-120102380D01*
X187835714Y-120245238D01*
X187740476Y-120340476D01*
X187645238Y-120388095D01*
%TO.C,J2*%
X186966666Y-86452380D02*
X186966666Y-87166666D01*
X186919047Y-87309523D01*
X186823809Y-87404761D01*
X186680952Y-87452380D01*
X186585714Y-87452380D01*
X187395238Y-86547619D02*
X187442857Y-86500000D01*
X187538095Y-86452380D01*
X187776190Y-86452380D01*
X187871428Y-86500000D01*
X187919047Y-86547619D01*
X187966666Y-86642857D01*
X187966666Y-86738095D01*
X187919047Y-86880952D01*
X187347619Y-87452380D01*
X187966666Y-87452380D01*
D12*
%TO.C,J3*%
X160000000Y-73670000D02*
X161330000Y-73670000D01*
X158730000Y-73670000D02*
X158730000Y-76270000D01*
X158730000Y-76270000D02*
X161330000Y-76270000D01*
X156130000Y-124590000D02*
X161330000Y-124590000D01*
X156130000Y-73670000D02*
X158730000Y-73670000D01*
X161330000Y-76270000D02*
X161330000Y-124590000D01*
X156130000Y-73670000D02*
X156130000Y-124590000D01*
X161330000Y-73670000D02*
X161330000Y-75000000D01*
%TO.C,J4*%
X178543000Y-79174000D02*
X178163000Y-79554000D01*
X180938000Y-76246000D02*
X180558000Y-76626000D01*
X166990000Y-73840000D02*
X166990000Y-82960000D01*
X176204000Y-76512000D02*
X175809000Y-76908000D01*
X181204000Y-76512000D02*
X180809000Y-76908000D01*
X175938000Y-76246000D02*
X175558000Y-76626000D01*
X166990000Y-81400000D02*
X182110000Y-81400000D01*
X170938000Y-76246000D02*
X170831000Y-76353000D01*
X173292000Y-78892000D02*
X172897000Y-79288000D01*
X173543000Y-79174000D02*
X173163000Y-79554000D01*
X168268000Y-79447000D02*
X168162000Y-79554000D01*
X166750000Y-82560000D02*
X166750000Y-83200000D01*
X166990000Y-73840000D02*
X182110000Y-73840000D01*
X171204000Y-76512000D02*
X171097000Y-76619000D01*
X182110000Y-73840000D02*
X182110000Y-82960000D01*
X166990000Y-82960000D02*
X182110000Y-82960000D01*
X168002000Y-79181000D02*
X167896000Y-79288000D01*
X166750000Y-83200000D02*
X167150000Y-83200000D01*
X178292000Y-78892000D02*
X177897000Y-79288000D01*
X166990000Y-82500000D02*
X182110000Y-82500000D01*
X171730000Y-77900000D02*
G75*
G03*
X171730000Y-77900000I-2180000J0D01*
G01*
X181730000Y-77900000D02*
G75*
G03*
X181730000Y-77900000I-2180000J0D01*
G01*
X176730000Y-77900000D02*
G75*
G03*
X176730000Y-77900000I-2180000J0D01*
G01*
%TO.C,J1*%
X183730000Y-121670000D02*
X183730000Y-124330000D01*
X183730000Y-124330000D02*
X165890000Y-124330000D01*
X185000000Y-121670000D02*
X186330000Y-121670000D01*
X183730000Y-121670000D02*
X165890000Y-121670000D01*
X186330000Y-121670000D02*
X186330000Y-123000000D01*
X165890000Y-121670000D02*
X165890000Y-124330000D01*
%TO.C,J2*%
X186330000Y-101330000D02*
X185000000Y-101330000D01*
X183670000Y-98730000D02*
X183670000Y-88510000D01*
X186330000Y-98730000D02*
X186330000Y-88510000D01*
X186330000Y-100000000D02*
X186330000Y-101330000D01*
X186330000Y-98730000D02*
X183670000Y-98730000D01*
X186330000Y-88510000D02*
X183670000Y-88510000D01*
%TD*%
M02*
