M48
; DRILL file {KiCad (6.0.9-0)} date 2022 November 14, Monday 23:33:38
; FORMAT={-:-/ absolute / inch / decimal}
; #@! TF.CreationDate,2022-11-14T23:33:38+01:00
; #@! TF.GenerationSoftware,Kicad,Pcbnew,(6.0.9-0)
; #@! TF.FileFunction,Plated,1,2,PTH
FMAT,2
INCH
; #@! TA.AperFunction,Plated,PTH,ComponentDrill
T1C0.0394
; #@! TA.AperFunction,Plated,PTH,ComponentDrill
T2C0.0512
%
G90
G05
T1
X6.1992Y-2.9528
X6.1992Y-3.0528
X6.1992Y-3.1528
X6.1992Y-3.2528
X6.1992Y-3.3528
X6.1992Y-3.4528
X6.1992Y-3.5528
X6.1992Y-3.6528
X6.1992Y-3.7528
X6.1992Y-3.8528
X6.1992Y-3.9528
X6.1992Y-4.0528
X6.1992Y-4.1528
X6.1992Y-4.2528
X6.1992Y-4.3528
X6.1992Y-4.4528
X6.1992Y-4.5528
X6.1992Y-4.6528
X6.1992Y-4.7528
X6.1992Y-4.8528
X6.2992Y-2.9528
X6.2992Y-3.0528
X6.2992Y-3.1528
X6.2992Y-3.2528
X6.2992Y-3.3528
X6.2992Y-3.4528
X6.2992Y-3.5528
X6.2992Y-3.6528
X6.2992Y-3.7528
X6.2992Y-3.8528
X6.2992Y-3.9528
X6.2992Y-4.0528
X6.2992Y-4.1528
X6.2992Y-4.2528
X6.2992Y-4.3528
X6.2992Y-4.4528
X6.2992Y-4.5528
X6.2992Y-4.6528
X6.2992Y-4.7528
X6.2992Y-4.8528
X6.5835Y-4.8425
X6.6835Y-4.8425
X6.7835Y-4.8425
X6.8835Y-4.8425
X6.9835Y-4.8425
X7.0835Y-4.8425
X7.1835Y-4.8425
X7.2835Y-3.537
X7.2835Y-3.637
X7.2835Y-3.737
X7.2835Y-3.837
X7.2835Y-3.937
X7.2835Y-4.8425
T2
X6.6752Y-3.0669
X6.872Y-3.0669
X7.0689Y-3.0669
T0
M30
