%TF.GenerationSoftware,KiCad,Pcbnew,(6.0.9-0)*%
%TF.CreationDate,2022-11-14T23:33:27+01:00*%
%TF.ProjectId,RaspberryShield,52617370-6265-4727-9279-536869656c64,rev?*%
%TF.SameCoordinates,Original*%
%TF.FileFunction,Soldermask,Top*%
%TF.FilePolarity,Negative*%
%FSLAX46Y46*%
G04 Gerber Fmt 4.6, Leading zero omitted, Abs format (unit mm)*
G04 Created by KiCad (PCBNEW (6.0.9-0)) date 2022-11-14 23:33:27*
%MOMM*%
%LPD*%
G01*
G04 APERTURE LIST*
%TA.AperFunction,Profile*%
%ADD10C,0.100000*%
%TD*%
%ADD11R,1.700000X1.700000*%
%ADD12O,1.700000X1.700000*%
%ADD13R,2.600000X2.600000*%
%ADD14C,2.600000*%
G04 APERTURE END LIST*
D10*
X150000000Y-69000000D02*
X190000000Y-69000000D01*
X190000000Y-69000000D02*
X190000000Y-129000000D01*
X190000000Y-129000000D02*
X150000000Y-129000000D01*
X150000000Y-129000000D02*
X150000000Y-69000000D01*
D11*
%TO.C,J3*%
X160000000Y-75000000D03*
D12*
X157460000Y-75000000D03*
X160000000Y-77540000D03*
X157460000Y-77540000D03*
X160000000Y-80080000D03*
X157460000Y-80080000D03*
X160000000Y-82620000D03*
X157460000Y-82620000D03*
X160000000Y-85160000D03*
X157460000Y-85160000D03*
X160000000Y-87700000D03*
X157460000Y-87700000D03*
X160000000Y-90240000D03*
X157460000Y-90240000D03*
X160000000Y-92780000D03*
X157460000Y-92780000D03*
X160000000Y-95320000D03*
X157460000Y-95320000D03*
X160000000Y-97860000D03*
X157460000Y-97860000D03*
X160000000Y-100400000D03*
X157460000Y-100400000D03*
X160000000Y-102940000D03*
X157460000Y-102940000D03*
X160000000Y-105480000D03*
X157460000Y-105480000D03*
X160000000Y-108020000D03*
X157460000Y-108020000D03*
X160000000Y-110560000D03*
X157460000Y-110560000D03*
X160000000Y-113100000D03*
X157460000Y-113100000D03*
X160000000Y-115640000D03*
X157460000Y-115640000D03*
X160000000Y-118180000D03*
X157460000Y-118180000D03*
X160000000Y-120720000D03*
X157460000Y-120720000D03*
X160000000Y-123260000D03*
X157460000Y-123260000D03*
%TD*%
D13*
%TO.C,J4*%
X169550000Y-77900000D03*
D14*
X174550000Y-77900000D03*
X179550000Y-77900000D03*
%TD*%
D11*
%TO.C,J1*%
X185000000Y-123000000D03*
D12*
X182460000Y-123000000D03*
X179920000Y-123000000D03*
X177380000Y-123000000D03*
X174840000Y-123000000D03*
X172300000Y-123000000D03*
X169760000Y-123000000D03*
X167220000Y-123000000D03*
%TD*%
D11*
%TO.C,J2*%
X185000000Y-100000000D03*
D12*
X185000000Y-97460000D03*
X185000000Y-94920000D03*
X185000000Y-92380000D03*
X185000000Y-89840000D03*
%TD*%
M02*
