%TF.GenerationSoftware,KiCad,Pcbnew,(6.0.9-0)*%
%TF.CreationDate,2022-11-14T23:33:26+01:00*%
%TF.ProjectId,RaspberryShield,52617370-6265-4727-9279-536869656c64,rev?*%
%TF.SameCoordinates,Original*%
%TF.FileFunction,Copper,L1,Top*%
%TF.FilePolarity,Positive*%
%FSLAX46Y46*%
G04 Gerber Fmt 4.6, Leading zero omitted, Abs format (unit mm)*
G04 Created by KiCad (PCBNEW (6.0.9-0)) date 2022-11-14 23:33:26*
%MOMM*%
%LPD*%
G01*
G04 APERTURE LIST*
%TA.AperFunction,Profile*%
%ADD10C,0.100000*%
%TD*%
%TA.AperFunction,ComponentPad*%
%ADD11R,1.700000X1.700000*%
%TD*%
%TA.AperFunction,ComponentPad*%
%ADD12O,1.700000X1.700000*%
%TD*%
%TA.AperFunction,ComponentPad*%
%ADD13R,2.600000X2.600000*%
%TD*%
%TA.AperFunction,ComponentPad*%
%ADD14C,2.600000*%
%TD*%
%TA.AperFunction,Conductor*%
%ADD15C,0.500000*%
%TD*%
G04 APERTURE END LIST*
D10*
X150000000Y-69000000D02*
X190000000Y-69000000D01*
X190000000Y-69000000D02*
X190000000Y-129000000D01*
X190000000Y-129000000D02*
X150000000Y-129000000D01*
X150000000Y-129000000D02*
X150000000Y-69000000D01*
D11*
%TO.P,J3,1,Pin_1*%
%TO.N,unconnected-(J3-Pad1)*%
X160000000Y-75000000D03*
D12*
%TO.P,J3,2,Pin_2*%
%TO.N,unconnected-(J3-Pad2)*%
X157460000Y-75000000D03*
%TO.P,J3,3,Pin_3*%
%TO.N,unconnected-(J3-Pad3)*%
X160000000Y-77540000D03*
%TO.P,J3,4,Pin_4*%
%TO.N,unconnected-(J3-Pad4)*%
X157460000Y-77540000D03*
%TO.P,J3,5,Pin_5*%
%TO.N,unconnected-(J3-Pad5)*%
X160000000Y-80080000D03*
%TO.P,J3,6,Pin_6*%
%TO.N,unconnected-(J3-Pad6)*%
X157460000Y-80080000D03*
%TO.P,J3,7,Pin_7*%
%TO.N,unconnected-(J3-Pad7)*%
X160000000Y-82620000D03*
%TO.P,J3,8,Pin_8*%
%TO.N,unconnected-(J3-Pad8)*%
X157460000Y-82620000D03*
%TO.P,J3,9,Pin_9*%
%TO.N,unconnected-(J3-Pad9)*%
X160000000Y-85160000D03*
%TO.P,J3,10,Pin_10*%
%TO.N,unconnected-(J3-Pad10)*%
X157460000Y-85160000D03*
%TO.P,J3,11,Pin_11*%
%TO.N,unconnected-(J3-Pad11)*%
X160000000Y-87700000D03*
%TO.P,J3,12,Pin_12*%
%TO.N,unconnected-(J3-Pad12)*%
X157460000Y-87700000D03*
%TO.P,J3,13,Pin_13*%
%TO.N,unconnected-(J3-Pad13)*%
X160000000Y-90240000D03*
%TO.P,J3,14,Pin_14*%
%TO.N,unconnected-(J3-Pad14)*%
X157460000Y-90240000D03*
%TO.P,J3,15,Pin_15*%
%TO.N,unconnected-(J3-Pad15)*%
X160000000Y-92780000D03*
%TO.P,J3,16,Pin_16*%
%TO.N,unconnected-(J3-Pad16)*%
X157460000Y-92780000D03*
%TO.P,J3,17,Pin_17*%
%TO.N,unconnected-(J3-Pad17)*%
X160000000Y-95320000D03*
%TO.P,J3,18,Pin_18*%
%TO.N,unconnected-(J3-Pad18)*%
X157460000Y-95320000D03*
%TO.P,J3,19,Pin_19*%
%TO.N,unconnected-(J3-Pad19)*%
X160000000Y-97860000D03*
%TO.P,J3,20,Pin_20*%
%TO.N,unconnected-(J3-Pad20)*%
X157460000Y-97860000D03*
%TO.P,J3,21,Pin_21*%
%TO.N,unconnected-(J3-Pad21)*%
X160000000Y-100400000D03*
%TO.P,J3,22,Pin_22*%
%TO.N,unconnected-(J3-Pad22)*%
X157460000Y-100400000D03*
%TO.P,J3,23,Pin_23*%
%TO.N,unconnected-(J3-Pad23)*%
X160000000Y-102940000D03*
%TO.P,J3,24,Pin_24*%
%TO.N,unconnected-(J3-Pad24)*%
X157460000Y-102940000D03*
%TO.P,J3,25,Pin_25*%
%TO.N,unconnected-(J3-Pad25)*%
X160000000Y-105480000D03*
%TO.P,J3,26,Pin_26*%
%TO.N,unconnected-(J3-Pad26)*%
X157460000Y-105480000D03*
%TO.P,J3,27,Pin_27*%
%TO.N,unconnected-(J3-Pad27)*%
X160000000Y-108020000D03*
%TO.P,J3,28,Pin_28*%
%TO.N,unconnected-(J3-Pad28)*%
X157460000Y-108020000D03*
%TO.P,J3,29,Pin_29*%
%TO.N,unconnected-(J3-Pad29)*%
X160000000Y-110560000D03*
%TO.P,J3,30,Pin_30*%
%TO.N,unconnected-(J3-Pad30)*%
X157460000Y-110560000D03*
%TO.P,J3,31,Pin_31*%
%TO.N,unconnected-(J3-Pad31)*%
X160000000Y-113100000D03*
%TO.P,J3,32,Pin_32*%
%TO.N,/RX*%
X157460000Y-113100000D03*
%TO.P,J3,33,Pin_33*%
%TO.N,unconnected-(J3-Pad33)*%
X160000000Y-115640000D03*
%TO.P,J3,34,Pin_34*%
%TO.N,/TX*%
X157460000Y-115640000D03*
%TO.P,J3,35,Pin_35*%
%TO.N,/SCL*%
X160000000Y-118180000D03*
%TO.P,J3,36,Pin_36*%
%TO.N,/GND*%
X157460000Y-118180000D03*
%TO.P,J3,37,Pin_37*%
%TO.N,/SDA*%
X160000000Y-120720000D03*
%TO.P,J3,38,Pin_38*%
%TO.N,/VIN*%
X157460000Y-120720000D03*
%TO.P,J3,39,Pin_39*%
%TO.N,unconnected-(J3-Pad39)*%
X160000000Y-123260000D03*
%TO.P,J3,40,Pin_40*%
%TO.N,unconnected-(J3-Pad40)*%
X157460000Y-123260000D03*
%TD*%
D13*
%TO.P,J4,1,Pin_1*%
%TO.N,/RX*%
X169550000Y-77900000D03*
D14*
%TO.P,J4,2,Pin_2*%
%TO.N,/TX*%
X174550000Y-77900000D03*
%TO.P,J4,3,Pin_3*%
%TO.N,/GND*%
X179550000Y-77900000D03*
%TD*%
D11*
%TO.P,J1,1,Pin_1*%
%TO.N,/GND*%
X185000000Y-123000000D03*
D12*
%TO.P,J1,2,Pin_2*%
%TO.N,/VIN*%
X182460000Y-123000000D03*
%TO.P,J1,3,Pin_3*%
%TO.N,unconnected-(J1-Pad3)*%
X179920000Y-123000000D03*
%TO.P,J1,4,Pin_4*%
%TO.N,unconnected-(J1-Pad4)*%
X177380000Y-123000000D03*
%TO.P,J1,5,Pin_5*%
%TO.N,unconnected-(J1-Pad5)*%
X174840000Y-123000000D03*
%TO.P,J1,6,Pin_6*%
%TO.N,unconnected-(J1-Pad6)*%
X172300000Y-123000000D03*
%TO.P,J1,7,Pin_7*%
%TO.N,/SDA*%
X169760000Y-123000000D03*
%TO.P,J1,8,Pin_8*%
%TO.N,/SCL*%
X167220000Y-123000000D03*
%TD*%
D11*
%TO.P,J2,1,Pin_1*%
%TO.N,unconnected-(J2-Pad1)*%
X185000000Y-100000000D03*
D12*
%TO.P,J2,2,Pin_2*%
%TO.N,/SDA*%
X185000000Y-97460000D03*
%TO.P,J2,3,Pin_3*%
%TO.N,/SCL*%
X185000000Y-94920000D03*
%TO.P,J2,4,Pin_4*%
%TO.N,/GND*%
X185000000Y-92380000D03*
%TO.P,J2,5,Pin_5*%
%TO.N,/VIN*%
X185000000Y-89840000D03*
%TD*%
D15*
%TO.N,/GND*%
X155200000Y-69900000D02*
X151950000Y-73150000D01*
X180650000Y-126800000D02*
X155250000Y-126800000D01*
X185000000Y-123000000D02*
X184450000Y-123000000D01*
X179550000Y-77900000D02*
X179550000Y-86930000D01*
X153300000Y-122340000D02*
X157460000Y-118180000D01*
X171550000Y-69900000D02*
X155200000Y-69900000D01*
X153300000Y-124850000D02*
X153300000Y-122340000D01*
X151950000Y-73150000D02*
X151950000Y-112670000D01*
X151950000Y-112670000D02*
X157460000Y-118180000D01*
X179550000Y-86930000D02*
X185000000Y-92380000D01*
X184450000Y-123000000D02*
X180650000Y-126800000D01*
X155250000Y-126800000D02*
X153300000Y-124850000D01*
X179550000Y-77900000D02*
X171550000Y-69900000D01*
%TO.N,/VIN*%
X157460000Y-120720000D02*
X157380000Y-120720000D01*
X182460000Y-123000000D02*
X182460000Y-107340000D01*
X154750000Y-124450000D02*
X155850000Y-125550000D01*
X182460000Y-107340000D02*
X187300000Y-102500000D01*
X187300000Y-92140000D02*
X185000000Y-89840000D01*
X155850000Y-125550000D02*
X179910000Y-125550000D01*
X187300000Y-102500000D02*
X187300000Y-92140000D01*
X179910000Y-125550000D02*
X182460000Y-123000000D01*
X157380000Y-120720000D02*
X154750000Y-123350000D01*
X154750000Y-123350000D02*
X154750000Y-124450000D01*
%TO.N,/SDA*%
X169760000Y-123000000D02*
X169760000Y-112700000D01*
X169760000Y-112700000D02*
X185000000Y-97460000D01*
X160000000Y-120750000D02*
X164050000Y-124800000D01*
X164050000Y-124800000D02*
X167960000Y-124800000D01*
X160000000Y-120720000D02*
X160000000Y-120750000D01*
X167960000Y-124800000D02*
X169760000Y-123000000D01*
%TO.N,/SCL*%
X167220000Y-123000000D02*
X167220000Y-112700000D01*
X160000000Y-118180000D02*
X164820000Y-123000000D01*
X167220000Y-112700000D02*
X185000000Y-94920000D01*
X164820000Y-123000000D02*
X167220000Y-123000000D01*
%TO.N,/RX*%
X163900000Y-72250000D02*
X169550000Y-77900000D01*
X156950000Y-72250000D02*
X163900000Y-72250000D01*
X157450000Y-113100000D02*
X154450000Y-110100000D01*
X157460000Y-113100000D02*
X157450000Y-113100000D01*
X154450000Y-74750000D02*
X156950000Y-72250000D01*
X154450000Y-110100000D02*
X154450000Y-74750000D01*
%TO.N,/TX*%
X156100000Y-71200000D02*
X167850000Y-71200000D01*
X153250000Y-74050000D02*
X156100000Y-71200000D01*
X157460000Y-115640000D02*
X153250000Y-111430000D01*
X153250000Y-111430000D02*
X153250000Y-74050000D01*
X167850000Y-71200000D02*
X174550000Y-77900000D01*
%TD*%
M02*
